Coordinates
version=1
nRows=5
nColumns=40
inDegrees=yes
endheader
time	pelvis_tilt	pelvis_list	pelvis_rotation	pelvis_tx	pelvis_ty	pelvis_tz	hip_flexion_r	hip_adduction_r	hip_rotation_r	knee_angle_r	knee_angle_r_beta	ankle_angle_r	subtalar_angle_r	mtp_angle_r	hip_flexion_l	hip_adduction_l	hip_rotation_l	knee_angle_l	knee_angle_l_beta	ankle_angle_l	subtalar_angle_l	mtp_angle_l	lumbar_extension	lumbar_bending	lumbar_rotation	arm_flex_r	arm_add_r	arm_rot_r	elbow_flex_r	pro_sup_r	wrist_flex_r	wrist_dev_r	arm_flex_l	arm_add_l	arm_rot_l	elbow_flex_l	pro_sup_l	wrist_flex_l	wrist_dev_l
1760624959.28600001	      0.00013487	     -0.91882213	      3.16996764	     -0.04212384	      0.96851311	      0.00845036	     80.00000000	     -7.00000000	      0.00000000	     80.00000000	      1.39626340	      0.00000000	      0.00000000	      0.00000000	     80.00000000	     -7.00000000	      0.00000000	     80.00000000	      1.39626340	      0.00000000	      0.00000000	      0.00000000	      2.42493375	     -1.37452372	      5.88415080	     13.96187475	    -12.28631823	     14.41134977	     51.17541274	    145.15788446	    -27.35949044	     35.00000010	      8.55418869	     -8.28612445	     -9.41501284	     74.47970041	    117.51093789	      5.78242110	      9.70909397
1760624959.31999993	     -0.00902035	     -0.91078277	      3.17805597	     -0.03918279	      0.96749682	      0.00880059	     80.00000000	     -7.00000000	      0.00000000	     80.00000000	      1.39626340	      0.00000000	      0.00000000	      0.00000000	     80.00000000	     -7.00000000	      0.00000000	     80.00000000	      1.39626340	      0.00000000	      0.00000000	      0.00000000	      2.42415297	     -1.40235856	      5.72076160	     13.64831428	    -12.08721507	     14.37521611	     51.43091206	    145.03548282	    -27.45386220	     35.00000010	      8.81149814	     -8.43827804	     -9.48635652	     73.79718742	    117.26833660	      5.63489862	      9.47769011
1760624959.35299993	     -0.00539824	     -0.89862185	      3.17343320	     -0.03856699	      0.96705586	      0.00862762	     80.00000000	     -7.00000000	      0.00000000	     80.00000000	      1.39626340	      0.00000000	      0.00000000	      0.00000000	     80.00000000	     -7.00000000	      0.00000000	     80.00000000	      1.39626340	      0.00000000	      0.00000000	      0.00000000	      2.32163934	     -1.41030039	      5.62850076	     13.50669799	    -11.96668217	     14.31586331	     51.63695374	    144.83813042	    -27.49249649	     35.00000010	      9.11257956	     -8.59787245	     -9.52343055	     73.26537051	    117.04016526	      5.41872338	      9.09902175
1760624959.38700008	      0.00844252	     -0.88786096	      3.16439500	     -0.03941345	      0.96751746	      0.00791090	     80.00000000	     -7.00000000	      0.00000000	     80.00000000	      1.39626340	      0.00000000	      0.00000000	      0.00000000	     80.00000000	     -7.00000000	      0.00000000	     80.00000000	      1.39626340	      0.00000000	      0.00000000	      0.00000000	      2.27754505	     -1.39568349	      5.65236909	     13.41900546	    -11.81486928	     14.14976804	     51.67550322	    144.71774223	    -27.50120906	     35.00000010	      9.33153331	     -8.69154365	     -9.39409972	     72.75332075	    116.60420029	      5.24984927	      8.77467588
1760624959.42000008	      0.01075549	     -0.88370917	      3.16277152	     -0.04001092	      0.96739844	      0.00745100	     80.00000000	     -7.00000000	      0.00000000	     80.00000000	      1.39626340	      0.00000000	      0.00000000	      0.00000000	     80.00000000	     -7.00000000	      0.00000000	     80.00000000	      1.39626340	      0.00000000	      0.00000000	      0.00000000	      2.21898812	     -1.33977054	      5.69225621	     13.40053611	    -11.74276343	     14.09608798	     51.69759040	    144.56811907	    -27.52650282	     35.00000010	      9.52948859	     -8.71071100	     -9.24550515	     72.47297054	    116.26297752	      5.20725574	      8.73874726
